<?xml version="1.0" encoding="UTF-8" standalone="no"?>
<svg
   viewBox="52 42 88 66"
   version="1.1"
   id="svg12"
   sodipodi:docname="gmail.svg"
   inkscape:version="1.2.1 (9c6d41e410, 2022-07-14, custom)"
   xmlns:inkscape="http://www.inkscape.org/namespaces/inkscape"
   xmlns:sodipodi="http://sodipodi.sourceforge.net/DTD/sodipodi-0.dtd"
   xmlns="http://www.w3.org/2000/svg"
   xmlns:svg="http://www.w3.org/2000/svg">
  <defs
     id="defs16" />
  <sodipodi:namedview
     id="namedview14"
     pagecolor="#ffffff"
     bordercolor="#000000"
     borderopacity="0.25"
     inkscape:showpageshadow="2"
     inkscape:pageopacity="0.0"
     inkscape:pagecheckerboard="0"
     inkscape:deskcolor="#d1d1d1"
     showgrid="false"
     inkscape:zoom="5.7318504"
     inkscape:cx="23.203676"
     inkscape:cy="36.899079"
     inkscape:window-width="1366"
     inkscape:window-height="707"
     inkscape:window-x="0"
     inkscape:window-y="0"
     inkscape:window-maximized="1"
     inkscape:current-layer="svg12" />
  <path
     fill="#4285f4"
     d="M 58.518251,104.88266 H 72.327316 V 74.093637 L 52.600082,60.510243 v 38.939061 c 0,3.006456 2.653312,5.433356 5.918169,5.433356"
     id="path2"
     style="stroke-width:0.945097" />
  <path
     fill="#34a853"
     d="m 119.67268,104.88266 h 13.80907 c 3.27472,0 5.91817,-2.43595 5.91817,-5.433356 V 60.510243 l -19.72724,13.583394"
     id="path4"
     style="stroke-width:0.945097" />
  <path
     fill="#fbbc04"
     d="m 119.67268,50.549088 v 23.544549 l 19.72724,-13.583394 v -7.244476 c 0,-6.719251 -8.35448,-10.549769 -14.20361,-6.520029"
     id="path6"
     style="stroke-width:0.945097" />
  <path
     fill="#ea4335"
     d="M 72.327316,74.093637 V 50.549088 L 96,66.84916 119.67268,50.549088 V 74.093637 L 96,90.393708"
     id="path8"
     style="stroke-width:0.945097" />
  <path
     fill="#c5221f"
     d="m 52.600082,53.265767 v 7.244476 L 72.327316,74.093637 V 50.549088 l -5.523625,-3.80335 c -5.858989,-4.02974 -14.203609,-0.199222 -14.203609,6.520029"
     id="path10"
     style="stroke-width:0.945097" />
</svg>
